<svg width="18" height="19" viewBox="0 0 18 19" fill="none" xmlns="http://www.w3.org/2000/svg">
<path d="M11.2495 16.9865V12.4864C11.2495 12.2874 11.1704 12.0967 11.0298 11.956C10.8891 11.8154 10.6984 11.7364 10.4995 11.7364H7.49945C7.30054 11.7364 7.10977 11.8154 6.96912 11.956C6.82847 12.0967 6.74945 12.2874 6.74945 12.4864V16.9865C6.74945 17.1854 6.67045 17.3761 6.52981 17.5168C6.38918 17.6574 6.19844 17.7364 5.99954 17.7365L1.50009 17.737C1.40159 17.7371 1.30406 17.7177 1.21305 17.68C1.12205 17.6423 1.03936 17.5871 0.969703 17.5174C0.900049 17.4478 0.844796 17.3651 0.807099 17.2741C0.769402 17.1831 0.75 17.0855 0.75 16.987V8.31889C0.75 8.2144 0.771834 8.11106 0.814101 8.0155C0.856369 7.91994 0.918138 7.83427 0.995448 7.76397L8.49493 0.945089C8.63299 0.819564 8.81287 0.750006 8.99946 0.75C9.18605 0.749994 9.36594 0.819539 9.504 0.945055L17.0045 7.76397C17.0818 7.83427 17.1436 7.91994 17.1859 8.01551C17.2282 8.11107 17.25 8.21442 17.25 8.31892V16.9871C17.25 17.0856 17.2306 17.1831 17.1929 17.2741C17.1552 17.3651 17.1 17.4478 17.0303 17.5174C16.9606 17.5871 16.878 17.6423 16.7869 17.68C16.6959 17.7177 16.5984 17.7371 16.4999 17.7371L11.9994 17.7365C11.8005 17.7364 11.6097 17.6574 11.4691 17.5168C11.3285 17.3761 11.2494 17.1854 11.2495 16.9865V16.9865Z" stroke="#343434" stroke-width="1.5" stroke-linecap="round" stroke-linejoin="round"/>
</svg>
