<svg width="14" height="13" viewBox="0 0 14 13" fill="none" xmlns="http://www.w3.org/2000/svg">
<path d="M9.81329 2.25004H12.8134" stroke="#F6F6F6" stroke-width="1.5" stroke-linecap="round" stroke-linejoin="round"/>
<path d="M11.3133 0.750014V3.75007" stroke="#F6F6F6" stroke-width="1.5" stroke-linecap="round" stroke-linejoin="round"/>
<path d="M0.750136 12.2496C1.36487 11.1856 2.2488 10.3021 3.31311 9.68779C4.37743 9.07352 5.58465 8.75015 6.81351 8.75016C8.04237 8.75018 9.24958 9.07357 10.3139 9.68787C11.3782 10.3022 12.2621 11.1857 12.8768 12.2498" stroke="#F6F6F6" stroke-width="1.5" stroke-linecap="round" stroke-linejoin="round"/>
<path d="M10.5665 6.13654C10.2991 6.85848 9.82896 7.48786 9.21255 7.94908C8.59614 8.4103 7.85968 8.68374 7.09163 8.73656C6.32358 8.78937 5.55662 8.6193 4.88289 8.2468C4.20915 7.87429 3.65729 7.31518 3.29361 6.63663C2.92993 5.95809 2.76989 5.18897 2.83273 4.42168C2.89557 3.65439 3.1786 2.92156 3.64783 2.31122C4.11706 1.70089 4.75253 1.23901 5.47789 0.98108C6.20326 0.723147 6.98767 0.68013 7.73689 0.857194" stroke="#F6F6F6" stroke-width="1.5" stroke-linecap="round" stroke-linejoin="round"/>
</svg>
