<svg width="23" height="15" viewBox="0 0 23 15" fill="none" xmlns="http://www.w3.org/2000/svg">
<path d="M7.61878 10.6664C10.3536 10.6664 12.5706 8.44942 12.5706 5.71462C12.5706 2.97981 10.3536 0.762808 7.61878 0.762808C4.88398 0.762808 2.66698 2.97981 2.66698 5.71462C2.66698 8.44942 4.88398 10.6664 7.61878 10.6664Z" stroke="white" stroke-width="1.5" stroke-linecap="round" stroke-linejoin="round"/>
<path d="M14.0381 0.947405C14.7192 0.75551 15.4335 0.711795 16.1329 0.819204C16.8323 0.926613 17.5006 1.18265 18.0927 1.57008C18.6848 1.9575 19.187 2.46731 19.5655 3.06518C19.944 3.66304 20.19 4.33507 20.2869 5.036C20.3838 5.73694 20.3293 6.4505 20.1273 7.12863C19.9252 7.80675 19.5801 8.4337 19.1153 8.96723C18.6505 9.50077 18.0768 9.92851 17.4327 10.2216C16.7887 10.5148 16.0893 10.6665 15.3817 10.6666" stroke="white" stroke-width="1.5" stroke-linecap="round" stroke-linejoin="round"/>
<path d="M0.761878 14.2276C1.53525 13.1275 2.56195 12.2297 3.75529 11.6099C4.94864 10.9901 6.2736 10.6665 7.61831 10.6664C8.96302 10.6664 10.288 10.9899 11.4814 11.6096C12.6748 12.2293 13.7016 13.1271 14.475 14.2271" stroke="white" stroke-width="1.5" stroke-linecap="round" stroke-linejoin="round"/>
<path d="M15.3817 10.6664C16.7265 10.6655 18.0518 10.9885 19.2453 11.6083C20.4388 12.2282 21.4654 13.1264 22.2381 14.2271" stroke="white" stroke-width="1.5" stroke-linecap="round" stroke-linejoin="round"/>
</svg>
